<svg width="723" height="543" viewBox="0 0 723 543" fill="none" xmlns="http://www.w3.org/2000/svg">
<path opacity="0.5" d="M522.83 632.851C581.532 632.851 629.12 585.263 629.12 526.561C629.12 467.858 581.532 420.271 522.83 420.271C464.128 420.271 416.54 467.858 416.54 526.561C416.54 585.263 464.128 632.851 522.83 632.851Z" stroke="white" stroke-width="50"/>
<path opacity="0.5" d="M628.628 316.933C674.014 316.933 710.806 280.141 710.806 234.755C710.806 189.369 674.014 152.577 628.628 152.577C583.243 152.577 546.45 189.369 546.45 234.755C546.45 280.141 583.243 316.933 628.628 316.933Z" stroke="white" stroke-width="24"/>
<path d="M345.45 381.826H346.894V542.079H345.45V381.826Z" fill="#1A2578"/>
<path d="M271.549 381.826H420.787V387.619H271.549V381.826Z" fill="#1A2578"/>
<path d="M333.373 336.739H359.771V382.035H333.373V336.739Z" fill="url(#paint0_linear_562_7732)"/>
<path d="M294.133 269.893H399.001C400.034 269.893 401.057 270.097 402.011 270.492C402.965 270.887 403.832 271.466 404.562 272.197C405.292 272.927 405.872 273.794 406.267 274.748C406.662 275.702 406.865 276.725 406.865 277.757V347.082C406.865 348.115 406.662 349.138 406.267 350.092C405.872 351.046 405.292 351.913 404.562 352.643C403.832 353.373 402.965 353.953 402.011 354.348C401.057 354.743 400.034 354.946 399.001 354.946H294.133C292.048 354.946 290.047 354.118 288.572 352.643C287.098 351.168 286.269 349.168 286.269 347.082V277.776C286.267 276.741 286.468 275.717 286.862 274.761C287.257 273.804 287.835 272.935 288.566 272.203C289.296 271.471 290.164 270.89 291.12 270.494C292.075 270.097 293.099 269.893 294.133 269.893Z" fill="white"/>
<path d="M320.45 382.036H372.693C372.691 379.679 371.754 377.419 370.087 375.752C368.42 374.085 366.16 373.148 363.803 373.145H329.331C326.974 373.148 324.714 374.085 323.048 375.752C321.381 377.419 320.444 379.679 320.441 382.036H320.45Z" fill="white"/>
<path d="M367.471 284.423H395.341V307.952H367.471V284.423Z" fill="url(#paint1_linear_562_7732)"/>
<path d="M297.793 284.423H351.907V307.952H297.793V284.423Z" fill="url(#paint2_linear_562_7732)"/>
<path d="M297.847 316.951H395.332V340.48H297.847V316.951Z" fill="url(#paint3_linear_562_7732)"/>
<path opacity="0.2" d="M196.826 17.7429C198.393 17.7916 199.939 17.3715 201.266 16.5363C202.592 15.7011 203.639 14.4889 204.273 13.0549C204.906 11.6209 205.097 10.0305 204.821 8.48725C204.545 6.94404 203.815 5.51836 202.724 4.39282C201.633 3.26728 200.23 2.49314 198.696 2.16955C197.163 1.84596 195.567 1.98767 194.114 2.57651C192.661 3.16535 191.417 4.17452 190.542 5.47474C189.666 6.77497 189.198 8.30705 189.198 9.87474C189.183 10.8923 189.367 11.903 189.742 12.8491C190.117 13.7953 190.674 14.6583 191.383 15.389C192.091 16.1196 192.936 16.7036 193.87 17.1074C194.804 17.5113 195.809 17.7272 196.826 17.7429Z" stroke="#BF0830" stroke-width="4"/>
<path d="M6.37996e-05 385.741C-0.0174679 371.63 3.57849 357.75 10.4453 345.423C17.3121 333.096 27.2211 322.732 39.2281 315.32C51.235 307.908 64.94 303.694 79.0372 303.079C93.1344 302.464 107.154 305.469 119.761 311.808C132.367 318.147 143.141 327.609 151.055 339.291C158.969 350.973 163.759 364.488 164.97 378.546C166.181 392.605 163.772 406.739 157.972 419.603C152.173 432.467 143.176 443.631 131.839 452.032V505.756H33.4274V452.014C23.0545 444.357 14.6254 434.371 8.81917 422.859C3.01298 411.348 -0.00786979 398.633 6.37996e-05 385.741Z" fill="white"/>
<path d="M33.6001 498.93H131.675V515.276C131.675 522.501 128.805 529.431 123.696 534.54C118.587 539.649 111.658 542.519 104.432 542.519H60.8432C53.6179 542.519 46.6885 539.649 41.5794 534.54C36.4704 529.431 33.6001 522.501 33.6001 515.276V498.93Z" fill="#1A2578"/>
<path d="M150.522 366.28C143.121 370.774 134.954 371.898 126.568 371.748C125.02 369.751 123.145 368.029 121.02 366.658C119.298 365.564 117.426 364.727 115.462 364.173C115.313 363.576 115.153 362.979 114.964 362.393C116.528 360.088 117.693 357.537 118.41 354.847C119.924 349.061 119.108 343.473 116.11 339.089C111.518 332.398 102.215 328.719 90.7312 329.017C80.3833 329.355 70.2579 332.103 61.1632 337.042C52.0685 341.98 44.2564 348.973 38.3508 357.462C31.4584 367.513 28.6995 378.181 30.572 387.497C32.0262 394.745 36.5481 401.535 42.9026 406.506C42.4965 412.705 44.5624 418.813 48.6496 423.497C52.2652 437.287 58.7393 445.827 69.3767 450.967C69.8846 451.216 70.9105 451.614 72.2153 452.111C75.4523 453.353 83.042 456.257 82.9922 457.629C82.6734 468.197 82.5041 477.135 82.3447 485.795C82.1854 494.454 82.0061 503.432 81.6874 514H82.4742C82.7929 503.432 82.9623 494.454 83.1316 485.785C83.3009 477.115 83.4603 468.177 83.789 457.629C83.789 456.008 79.8049 454.169 72.4942 451.345C71.2094 450.848 70.1934 450.46 69.7253 450.232C59.6655 445.37 53.4006 437.376 49.805 424.601C53.648 428.069 58.5115 430.203 63.6695 430.685C63.9706 431.238 64.3031 431.772 64.6655 432.286C66.3364 434.73 68.5733 436.735 71.1864 438.132C73.7994 439.529 76.7115 440.276 79.6754 440.309C88.4901 440.13 97.4842 434.185 104.347 424.004C105.781 421.909 107.024 419.69 108.062 417.373L109.944 416.776C120.492 413.088 128.669 404.637 131.279 394.764C132.262 390.983 132.409 387.034 131.711 383.19C131.013 379.346 129.485 375.7 127.235 372.504C135.502 372.574 143.61 371.391 151 366.917L150.522 366.28ZM107.056 417.621C106.088 419.681 104.955 421.659 103.669 423.537C96.9563 433.479 88.1914 439.315 79.6356 439.494C76.8052 439.442 74.0279 438.718 71.5337 437.382C69.0395 436.045 66.9002 434.135 65.293 431.809C65.044 431.451 64.8149 431.093 64.6157 430.735C66.1 430.833 67.5902 430.796 69.0679 430.626C69.7552 430.546 70.4225 430.447 71.0599 430.308C71.8444 430.851 72.6781 431.321 73.55 431.709C80.1237 434.692 88.54 433.946 96.6276 429.721C101.408 427.226 105.542 422.762 104.596 418.148C105.402 417.999 106.199 417.82 107.006 417.621H107.056ZM103.928 418.894C104.307 422.871 100.442 426.848 96.279 429.035C88.4005 433.131 80.2431 433.847 73.8786 431.023C73.2774 430.755 72.695 430.446 72.1356 430.099C74.6034 429.493 76.9238 428.398 78.9583 426.878C79.6755 427.047 80.4025 427.176 81.1396 427.285C89.2272 428.429 97.8428 425.038 103.928 418.924V418.894ZM70.1834 429.721C69.785 429.791 69.3767 429.85 68.9484 429.9C67.3511 430.082 65.7396 430.106 64.1376 429.97C63.3527 428.507 62.8945 426.892 62.7948 425.236C62.6951 423.579 62.9561 421.921 63.5599 420.375C63.6595 420.137 63.7691 419.888 63.8886 419.64C64.0495 420.488 64.2862 421.319 64.5958 422.125C65.7276 425.12 67.656 427.749 70.1735 429.731L70.1834 429.721ZM63.6994 418.317C63.369 418.886 63.0795 419.478 62.8329 420.087C62.2118 421.655 61.9255 423.335 61.9924 425.02C62.0593 426.704 62.4779 428.356 63.2213 429.87C58.0717 429.288 53.2702 426.986 49.5959 423.338L49.3767 423.09C49.1078 422.095 48.8588 420.992 48.6197 419.898C47.8163 416.18 47.2087 412.597 46.797 409.151C48.8381 410.377 50.9887 411.413 53.2213 412.243C55.8611 413.212 58.6113 413.849 61.4086 414.142C62.0876 415.221 62.8327 416.257 63.6396 417.244C63.6396 417.621 63.6396 417.979 63.6396 418.327L63.6994 418.317ZM77.9424 426.649C75.9138 428.041 73.6287 429.018 71.2193 429.522C68.5504 427.59 66.5046 424.923 65.3329 421.847C64.9231 420.768 64.6488 419.643 64.5161 418.496C64.5368 418.45 64.5636 418.406 64.5958 418.367C68.1763 422.332 72.8064 425.206 77.9523 426.659L77.9424 426.649ZM103.341 418.397C97.4344 424.362 89.0678 427.643 81.2392 426.53C80.7312 426.46 80.2432 426.37 79.7253 426.261C81.0904 425.1 82.2547 423.723 83.1714 422.185C84.4566 420.083 85.1771 417.686 85.2631 415.225C90.7675 418.251 97.1257 419.356 103.331 418.367L103.341 418.397ZM84.4862 414.798C84.4742 417.256 83.785 419.664 82.4942 421.757C81.5133 423.393 80.2446 424.837 78.7491 426.023C73.4365 424.678 68.6491 421.776 65.0042 417.691C65.8533 416.471 66.7746 415.302 67.7631 414.191C71.8623 413.862 75.7927 412.418 79.1276 410.016C80.078 411.241 81.1676 412.352 82.3746 413.326C83.0381 413.857 83.7297 414.352 84.4464 414.808L84.4862 414.798ZM45.9504 408.644C46.387 412.484 47.0186 416.3 47.8429 420.077L48.2313 421.737C45.0701 417.516 43.4595 412.339 43.6696 407.073C44.3967 407.62 45.1536 408.147 45.9405 408.644H45.9504ZM103.61 417.592C97.3017 418.684 90.8095 417.545 85.2531 414.37C85.1797 413.041 84.841 411.74 84.2571 410.543C83.688 409.366 82.8443 408.343 81.7969 407.56C82.026 407.311 82.2452 407.033 82.4643 406.765C84.8068 403.544 86.3683 399.824 87.026 395.898C88.8452 396.215 90.6873 396.385 92.534 396.405C91.7705 397.041 91.0999 397.781 90.542 398.602C89.7294 399.7 89.2369 401.001 89.1191 402.361C89.0013 403.721 89.2628 405.087 89.8746 406.307C91.3089 408.932 94.0977 410.374 96.7869 411.756C99.775 413.277 102.524 414.738 103.54 417.552C103.535 417.571 103.535 417.592 103.54 417.612L103.61 417.592ZM109.307 409.588C109.217 409.807 109.118 410.036 109.018 410.254C107.831 412.841 106.26 415.235 104.357 417.353V417.283C103.241 414.142 100.173 412.571 97.2153 411.05C94.6256 409.717 91.9563 408.345 90.6316 405.92C90.0817 404.828 89.8499 403.605 89.9626 402.388C90.0753 401.172 90.528 400.012 91.269 399.04C91.976 397.986 92.8829 397.081 93.9383 396.375C96.0817 396.287 98.1984 395.867 100.213 395.132C105.602 396.325 109.078 402.032 109.347 407.232C109.402 408.016 109.402 408.804 109.347 409.588H109.307ZM107.444 416.776C106.787 416.955 106.14 417.114 105.452 417.264C106.767 415.732 107.915 414.065 108.879 412.292C108.531 413.842 108.041 415.356 107.414 416.816L107.444 416.776ZM66.6775 414.291C65.903 415.184 65.1749 416.117 64.4962 417.085L64.4265 417.005C64.4262 416.112 64.5264 415.221 64.7253 414.35C65.3627 414.35 66.0201 414.35 66.6675 414.301L66.6775 414.291ZM126.189 372.534C128.507 375.661 130.093 379.267 130.833 383.086C131.572 386.905 131.445 390.841 130.462 394.605C127.922 404.229 119.934 412.501 109.626 416.07L108.4 416.478C109.285 414.332 109.845 412.067 110.064 409.757C112.982 402.718 112.285 395.61 108.271 389.793C108.918 389.157 109.556 388.451 110.193 387.696C113.862 383.208 115.96 377.646 116.169 371.858C119.526 372.186 122.873 372.454 126.189 372.534ZM63.9086 414.291C63.7908 414.859 63.7077 415.433 63.6596 416.011C63.2114 415.424 62.793 414.828 62.3846 414.211C62.8893 414.258 63.3973 414.288 63.9086 414.301V414.291ZM81.289 408.077C82.2696 408.79 83.0597 409.732 83.5898 410.821C84.0345 411.761 84.3142 412.77 84.4165 413.804C83.8886 413.446 83.4205 413.058 82.8826 412.68C81.7256 411.734 80.6797 410.66 79.7651 409.479C80.301 409.05 80.8099 408.588 81.289 408.097V408.077ZM67.3448 413.406C66.528 413.476 65.7014 413.515 64.8847 413.515C65.0294 413.05 65.2057 412.595 65.4125 412.153C66.0635 410.864 66.9791 409.726 68.0996 408.813C69.2202 407.9 70.5206 407.233 71.9165 406.854C70.7929 409.225 69.2853 411.395 67.4544 413.277L67.3448 413.406ZM72.2452 405.949C70.6321 406.313 69.1191 407.027 67.8141 408.041C66.5092 409.055 65.4443 410.344 64.6954 411.815C64.4379 412.363 64.228 412.932 64.0679 413.515C63.3209 413.515 62.5739 413.446 61.8269 413.386C60.4873 411.193 59.4804 408.814 58.8388 406.327C57.5928 401.091 57.8938 395.608 59.7054 390.539C61.1804 390.42 62.6626 390.42 64.1376 390.539C70.9105 393.949 73.6595 400.799 72.2651 405.681C72.2651 405.767 72.2452 405.847 72.2053 405.92L72.2452 405.949ZM58.8986 390.619C57.1313 395.74 56.8618 401.258 58.1217 406.526C58.7224 408.893 59.6439 411.168 60.8608 413.287C58.3265 412.983 55.8363 412.386 53.4405 411.507C51.0683 410.62 48.7896 409.501 46.6377 408.167C46.6377 407.828 46.568 407.49 46.5381 407.172C47.3057 407.842 48.2068 408.341 49.182 408.638C50.1572 408.934 51.1842 409.021 52.1954 408.892H52.5042L54.4962 391.653C55.9164 391.163 57.3859 390.829 58.8787 390.658L58.8986 390.619ZM78.6396 409.34C75.6549 411.505 72.1573 412.858 68.4902 413.267C70.3469 411.337 71.8264 409.078 72.8528 406.606C73.6846 406.428 74.5321 406.335 75.3826 406.327C75.8921 406.317 76.4017 406.347 76.9065 406.417C77.4022 407.456 77.9818 408.454 78.6396 409.399V409.34ZM80.5818 407.64C80.162 408.07 79.7198 408.478 79.2571 408.862C78.7762 408.155 78.3404 407.418 77.9523 406.655C78.9056 406.842 79.8232 407.177 80.6714 407.649L80.5818 407.64ZM51.7871 408.127C50.7903 408.196 49.7909 408.039 48.8631 407.669C47.9354 407.299 47.1032 406.725 46.4285 405.989C46.1961 403.292 46.0932 400.667 46.1197 398.115C47.4521 395.874 49.3789 394.043 51.6875 392.826C52.3344 392.485 52.9994 392.18 53.6795 391.911L51.7871 408.127ZM45.6716 406.317L45.7911 407.61C45.064 407.133 44.3568 406.616 43.6795 406.099C43.6795 405.562 43.7891 405.025 43.8688 404.488C43.8688 404.279 43.9385 404.07 43.9783 403.862C44.1676 404.229 44.3767 404.587 44.5959 404.935C44.9145 405.426 45.2743 405.888 45.6716 406.317ZM107.683 390.291C109.386 392.738 110.491 395.55 110.908 398.501C111.324 401.452 111.042 404.459 110.084 407.282V407.123C109.795 401.953 106.518 396.306 101.349 394.586C103.693 393.534 105.837 392.085 107.683 390.3V390.291ZM86.279 395.719C85.6448 399.519 84.1343 403.12 81.8667 406.238C81.6475 406.526 81.4085 406.804 81.1694 407.073C80.0378 406.379 78.7777 405.919 77.4643 405.721C75.5891 401.796 75.0977 397.353 76.0699 393.114L77.2153 393.432C80.2033 394.297 83.2511 395.152 86.279 395.719ZM75.5221 405.572H75.4125C74.654 405.58 73.8975 405.653 73.1516 405.79C74.7352 399.885 71.0798 394.069 66.0998 390.817C69.2169 391.305 72.2981 391.999 75.3229 392.895C74.3389 397.158 74.7689 401.624 76.548 405.621C76.2193 405.621 75.8807 405.621 75.552 405.621L75.5221 405.572ZM43.4803 402.678C43.3409 403.245 43.2313 403.822 43.1317 404.408C43.0719 404.786 43.0222 405.174 42.9823 405.572C37.0062 400.74 32.7334 394.257 31.3489 387.348C29.5162 378.241 32.2353 367.782 38.9983 357.899C44.8446 349.515 52.5711 342.609 61.5627 337.731C70.5544 332.853 80.5628 330.139 90.791 329.803C96.1196 329.673 109.187 330.349 115.492 339.536C118.371 343.712 119.147 349.09 117.693 354.648C117.052 357.051 116.044 359.342 114.705 361.439C113.933 359.253 112.86 357.185 111.518 355.294C107.265 349.329 100.691 345.809 94.3965 346.148C91.0345 346.352 87.8419 347.691 85.3427 349.945C82.5506 349.369 79.674 349.329 76.8667 349.826C71.4658 350.858 66.4408 353.316 62.3149 356.945C55.6217 362.622 50.6317 370.655 47.9026 380.15C46.7914 384.011 46.0477 387.969 45.6815 391.971C45.0722 392.57 44.5342 393.237 44.0779 393.959C43.3323 395.272 42.8915 396.735 42.7881 398.241C42.6847 399.747 42.9213 401.256 43.4803 402.659V402.678ZM45.3727 399.696C45.3727 401.436 45.4624 403.215 45.6018 405.035C45.4923 404.896 45.3927 404.746 45.2931 404.597C44.9022 403.99 44.5688 403.347 44.2971 402.678C44.5671 401.656 44.9236 400.658 45.3628 399.696H45.3727ZM45.3727 397.986C44.756 399.049 44.2551 400.176 43.8787 401.346C43.5502 400.187 43.4576 398.974 43.6064 397.779C43.7552 396.584 44.1425 395.43 44.7452 394.387C44.9945 393.981 45.2707 393.592 45.5719 393.223C45.4624 394.774 45.3926 396.345 45.3827 397.946L45.3727 397.986ZM53.8289 391.106C52.9826 391.412 52.1603 391.781 51.3687 392.209C49.3075 393.282 47.5347 394.834 46.1994 396.733C46.2393 395.248 46.3189 393.787 46.4385 392.349C48.5554 390.435 51.2276 389.244 54.068 388.948L53.8289 391.106ZM93.5997 395.659C91.4571 395.721 89.3138 395.558 87.2053 395.172C87.5937 393.114 87.8826 391.026 88.2013 388.958C88.52 386.612 88.8388 384.226 89.3268 381.909L89.765 381.85C92.2431 381.555 94.7553 381.762 97.1513 382.459C99.5472 383.156 101.778 384.329 103.709 385.906C105.054 387.046 106.267 388.334 107.325 389.744C105.296 391.733 102.892 393.301 100.253 394.357C99.9344 394.297 99.6057 394.238 99.2571 394.208C97.2791 394.047 95.3052 394.562 93.6595 395.669L93.5997 395.659ZM98.3806 394.943C97.4786 395.194 96.56 395.38 95.6316 395.5C96.5097 395.15 97.445 394.965 98.3906 394.953L98.3806 394.943ZM88.4205 382.019C87.9623 384.266 87.6535 386.562 87.3447 388.829C87.0659 390.887 86.787 392.975 86.3487 395.003C83.3607 394.446 80.3727 393.591 77.3846 392.726L76.2293 392.398C76.7185 390.769 77.4831 389.236 78.4902 387.865C80.9421 384.72 84.505 382.629 88.4503 382.019H88.4205ZM88.5997 381.184C84.3856 381.793 80.5706 384.006 77.9523 387.358C76.8824 388.804 76.0735 390.426 75.5619 392.15C71.9261 391.037 68.1951 390.261 64.4165 389.833C63.8881 389.554 63.3426 389.308 62.7831 389.098C62.0921 388.837 61.3872 388.614 60.6715 388.431C62.4563 384.296 65.2216 380.655 68.7292 377.823L68.9285 377.664C70.6715 378.002 72.4842 378.43 74.3468 378.857C79.3268 380.03 84.3965 381.223 88.7192 380.845C88.6842 380.966 88.6576 381.089 88.6395 381.213L88.5997 381.184ZM54.1476 388.054C51.3563 388.374 48.712 389.473 46.5182 391.225C46.8957 387.565 47.5956 383.945 48.6098 380.408C51.299 371.072 56.1994 363.168 62.7731 357.591C66.7799 354.051 71.6637 351.648 76.9165 350.631C79.45 350.184 82.0424 350.184 84.5759 350.631C82.3532 352.838 81.0537 355.806 80.9404 358.933C80.9768 361.055 81.5177 363.137 82.5186 365.009C83.5195 366.881 84.9518 368.489 86.6974 369.7C80.1917 370.405 73.9976 372.851 68.7691 376.779C63.2213 375.785 58.4404 375.725 56.0101 379.523C55.1794 381.055 54.7062 382.754 54.6257 384.494L54.1476 388.054ZM59.1874 389.863C57.6339 390.013 56.1012 390.329 54.6158 390.808L54.8448 388.819C56.3987 388.696 57.9619 388.773 59.4962 389.048L59.1974 389.853L59.1874 389.863ZM61.6476 389.744C61.1098 389.744 60.5819 389.744 60.044 389.744C60.1138 389.565 60.1934 389.376 60.2631 389.187C60.8703 389.324 61.4689 389.497 62.0559 389.704L61.6476 389.744ZM115.363 371.848C115.159 377.48 113.116 382.892 109.546 387.258C108.958 387.964 108.361 388.61 107.773 389.247C106.705 387.818 105.479 386.514 104.118 385.359C102.108 383.712 99.7861 382.488 97.2904 381.76C94.7947 381.032 92.1773 380.816 89.5957 381.124H89.4165L89.4962 380.776C91.2873 380.555 92.997 379.899 94.4762 378.867C96.4936 377.301 97.9418 375.118 98.5997 372.653C100.917 372.383 103.178 371.756 105.303 370.794C107.205 370.983 109.098 371.192 111 371.4L115.432 371.868L115.363 371.848ZM67.8627 377.545C64.3624 380.454 61.6041 384.151 59.8149 388.332C58.2149 387.995 56.5753 387.884 54.9445 388.004L55.3329 384.723C55.3996 383.091 55.8318 381.494 56.5978 380.05C58.6994 376.799 62.9026 376.69 67.8727 377.545H67.8627ZM88.9085 379.981C84.6655 380.468 79.536 379.265 74.5261 378.092C72.9125 377.714 71.3288 377.336 69.785 377.018C75.0594 373.251 81.252 370.971 87.7133 370.416C88.4855 370.884 89.299 371.28 90.1435 371.599C90.7942 371.845 91.4595 372.051 92.1356 372.216C90.6663 374.617 89.5935 377.239 88.9583 379.981H88.9085ZM97.7332 372.643C97.1132 374.829 95.8033 376.757 93.9981 378.141C92.7352 379.033 91.2832 379.621 89.7551 379.861C90.3934 377.211 91.467 374.685 92.9324 372.385C94.5208 372.683 96.1413 372.773 97.7531 372.653L97.7332 372.643ZM97.9822 371.838C96.4642 371.974 94.9351 371.921 93.4304 371.679C93.8484 371.121 94.2974 370.586 94.775 370.078C95.9702 370.078 97.1654 370.078 98.3706 370.188C98.2611 370.764 98.1415 371.321 97.9921 371.838H97.9822ZM103.6 370.545C102.058 371.129 100.454 371.532 98.8188 371.748C98.9483 371.251 99.0678 370.754 99.1574 370.227C100.645 370.307 102.129 370.416 103.61 370.555L103.6 370.545ZM115.681 365.057C117.436 365.585 119.112 366.347 120.661 367.324C122.538 368.532 124.218 370.021 125.641 371.739C122.544 371.639 119.416 371.391 116.289 371.082C116.3 369.057 116.089 367.037 115.661 365.057H115.681ZM93.7193 370.098C93.3208 370.555 92.9423 371.033 92.5838 371.52C91.8448 371.359 91.119 371.143 90.4125 370.874C89.9638 370.706 89.5249 370.513 89.0977 370.297C90.6316 370.158 92.1655 370.098 93.7193 370.088V370.098ZM114.805 364.809C115.252 366.839 115.463 368.914 115.432 370.993L111.06 370.526L106.628 370.048C109.221 368.65 111.517 366.762 113.391 364.491C113.869 364.58 114.347 364.69 114.805 364.809ZM112.484 364.352C110.606 366.534 108.314 368.324 105.741 369.621L105.144 369.899C103.151 369.71 101.229 369.551 99.2869 369.442C99.3965 368.746 99.4762 368.02 99.5459 367.245C99.5459 367.006 99.5459 366.758 99.5459 366.499C103.519 364.468 108.026 363.718 112.444 364.352H112.484ZM94.2272 369.323C92.1084 369.316 89.9907 369.419 87.8826 369.631C84.1276 367.225 81.6376 363.099 81.6974 359.013C81.7618 357.462 82.1339 355.939 82.7922 354.533C83.4504 353.127 84.3817 351.865 85.532 350.82C87.8844 351.345 90.111 352.324 92.0858 353.704C94.091 355.099 95.7414 356.943 96.9052 359.089C98.0691 361.235 98.7142 363.623 98.7889 366.062C97.1916 366.939 95.7263 368.037 94.4364 369.323H94.2272ZM98.779 366.976C98.779 367.056 98.779 367.135 98.779 367.225C98.7092 368 98.6296 368.736 98.5101 369.432C97.5141 369.432 96.5181 369.352 95.5818 369.333C96.5668 368.435 97.6453 367.645 98.7989 366.976H98.779ZM109.456 363.387C106.032 363.377 102.652 364.153 99.5758 365.654C99.4348 363.161 98.7298 360.733 97.5136 358.551C96.2974 356.369 94.6017 354.491 92.5539 353.057C90.6447 351.725 88.5082 350.751 86.2492 350.184C88.5492 348.266 91.4046 347.133 94.3965 346.953C100.442 346.625 106.747 350.015 110.841 355.771C112.255 357.769 113.36 359.967 114.118 362.294C113.789 362.771 113.44 363.228 113.122 363.675C111.922 363.485 110.71 363.389 109.496 363.387H109.456ZM114.436 363.238C114.506 363.477 114.576 363.725 114.636 363.974L113.978 363.825C114.137 363.646 114.287 363.437 114.436 363.238Z" fill="#1A2578"/>
<path d="M151.007 366C151.007 366 193.117 340.897 192.948 295.329C192.779 252.12 146.204 226.32 151.405 169.713C155.384 126.504 176.796 108.12 218.518 92.4724C259.861 76.9645 262.278 11.7876 308.873 7.27854C354.622 2.8591 356.8 52.5381 379.983 54.1406C403.166 55.7432 430.546 33.636 463.814 32.6008C498.514 31.5258 512 41.7681 512 41.7681" stroke="#1A2578" stroke-width="0.8" stroke-miterlimit="10"/>
<path d="M282.22 61.8391C282.56 55.5356 284.727 49.4749 288.449 44.4194L281.799 36.2894L292.883 26.9095L299.534 35.0282C304.943 32.3005 311.015 31.2249 317.014 31.9316L320.583 22L334.25 27.0109L330.703 36.9312C335.754 40.3045 339.734 45.0916 342.164 50.7139L352.384 48.7996L355 63.2579L344.769 65.1609C344.438 71.4645 342.274 77.5267 338.551 82.5807L345.201 90.7106L334.117 100.102L327.466 91.9718C322.022 94.7253 315.904 95.8054 309.864 95.0796L306.306 105L292.75 100.012L296.308 90.0913C291.255 86.7165 287.273 81.9249 284.847 76.2974L274.616 78.2117L272 63.7646L282.22 61.8391ZM307.78 79.439C311.151 80.6872 314.828 80.8004 318.267 79.762C321.706 78.7236 324.725 76.5886 326.878 73.6727C329.03 70.7567 330.202 67.2146 330.22 63.57C330.238 59.9253 329.101 56.3714 326.977 53.4338C324.853 50.4962 321.856 48.3307 318.427 47.2575C314.998 46.1842 311.32 46.2602 307.937 47.4741C304.555 48.6881 301.646 50.9755 299.641 53.9984C297.637 57.0213 296.643 60.6191 296.807 64.2601C296.897 66.4869 297.425 68.673 298.359 70.6897C299.288 72.7061 300.6 74.5166 302.218 76.0178C303.837 77.5191 305.731 78.6816 307.792 79.439H307.78Z" fill="#BF0830"/>
<path d="M592.981 425.106L532.592 412.466L514.122 412.311C512.44 412.293 510.767 412.058 509.145 411.612L536.77 741.971H610.635L606.794 473.045L638.16 459.978L639.14 462.33L609.373 474.725L613.178 741.962H673.04L674.121 442.088L607.52 428.158L592.981 425.106Z" fill="#BF0830"/>
<path d="M609.373 474.717L639.131 462.321L638.16 459.969L606.794 473.037L610.635 741.963V741.981L612.333 741.963L613.178 741.954L609.373 474.717Z" fill="black"/>
<path opacity="0.2" d="M674.121 442.089L674.23 413.066L674.121 442.089Z" fill="black"/>
<path d="M674.23 413.066C672.706 413.444 671.141 413.633 669.571 413.629L532.593 412.467L592.981 425.117L607.511 428.168L674.112 442.098L674.23 413.066Z" fill="#BF0830"/>
<path opacity="0.2" d="M674.23 413.066C672.706 413.444 671.141 413.633 669.571 413.629L532.593 412.467L592.981 425.117L607.511 428.168L674.112 442.098L674.23 413.066Z" fill="black"/>
<g filter="url(#filter0_d_562_7732)">
<path d="M610.072 211.094V192.741C607.693 183.951 603.479 177.73 597.531 174.498C598.219 174.034 598.832 173.467 599.347 172.818C600.57 171.343 601.161 169.444 600.991 167.536C600.821 165.628 599.904 163.864 598.439 162.629C597.635 162.005 596.699 161.574 595.703 161.368C594.707 161.162 593.677 161.186 592.691 161.439C591.647 155.99 588.895 151.759 582.847 149.979C582.847 149.979 573.394 154.174 566.002 152.803C565.348 154.982 564.613 157.57 563.886 160.349C560.853 162.247 554.805 166.579 556.775 169.839C557.52 171.083 559.336 171.773 561.262 172.155C559.89 179.964 559.582 187.111 562.242 189.554C564.658 191.788 570.016 192.823 575.864 193.25L575.419 206.608L575.256 211.376C586.852 210.722 598.476 210.64 610.072 211.094ZM596.451 165.489L596.296 166.761C595.07 166.615 593.245 166.806 591.42 170.239L590.303 169.639C591.974 166.543 593.99 165.171 596.487 165.462L596.451 165.489ZM568.417 173.826C568.416 172.408 568.834 171.022 569.621 169.842C570.407 168.663 571.525 167.743 572.834 167.2C574.143 166.656 575.584 166.513 576.975 166.788C578.365 167.064 579.643 167.745 580.645 168.747C581.648 169.749 582.332 171.025 582.609 172.415C582.886 173.805 582.745 175.247 582.203 176.556C581.661 177.866 580.742 178.986 579.564 179.773C578.385 180.561 577 180.981 575.582 180.981C573.69 180.972 571.878 180.214 570.543 178.873C569.207 177.533 568.456 175.718 568.454 173.826H568.417ZM575.864 193.25C583.466 193.654 591.088 193.493 598.666 192.769C590.33 200.215 582.629 204.619 575.41 206.608L575.864 193.25Z" fill="white"/>
<path d="M575.9 193.251L575.446 206.609C582.711 204.62 590.366 200.252 598.703 192.769C591.124 193.494 583.503 193.655 575.9 193.251Z" fill="black"/>
<path d="M582.829 150.024C588.877 151.841 591.629 156.018 592.673 161.485C593.658 161.232 594.689 161.207 595.685 161.414C596.681 161.62 597.617 162.051 598.421 162.674C599.886 163.91 600.803 165.673 600.973 167.582C601.143 169.49 600.552 171.388 599.329 172.863C598.814 173.513 598.201 174.08 597.513 174.543C603.461 177.776 607.675 183.996 610.054 192.787C631.958 176.441 635.744 158.642 619.535 148.017C617.464 134.005 599.638 126.141 581.113 132.098C571.124 119.784 548.612 132.698 559.318 148.753C560.086 149.859 561.075 150.794 562.222 151.499C563.369 152.204 564.65 152.663 565.984 152.848C573.376 154.174 582.829 150.024 582.829 150.024Z" fill="#121C65"/>
<path d="M590.339 169.639L591.456 170.238C593.273 166.806 595.089 166.606 596.333 166.76L596.487 165.489C593.99 165.171 591.974 166.542 590.339 169.639Z" fill="black"/>
<path d="M582.774 173.825C582.776 172.407 582.357 171.021 581.571 169.841C580.784 168.661 579.665 167.742 578.356 167.198C577.046 166.655 575.605 166.512 574.214 166.788C572.823 167.065 571.546 167.747 570.543 168.75C569.541 169.752 568.858 171.03 568.582 172.421C568.306 173.811 568.448 175.253 568.992 176.562C569.535 177.872 570.455 178.991 571.634 179.777C572.814 180.564 574.201 180.983 575.619 180.981C577.516 180.981 579.337 180.227 580.679 178.885C582.021 177.543 582.774 175.723 582.774 173.825Z" fill="white"/>
<path opacity="0.4" d="M582.774 173.825C582.776 172.407 582.357 171.021 581.571 169.841C580.784 168.661 579.665 167.742 578.356 167.198C577.046 166.655 575.605 166.512 574.214 166.788C572.823 167.065 571.546 167.747 570.543 168.75C569.541 169.752 568.858 171.03 568.582 172.421C568.306 173.811 568.448 175.253 568.992 176.562C569.535 177.872 570.455 178.991 571.634 179.777C572.814 180.564 574.201 180.983 575.619 180.981C577.516 180.981 579.337 180.227 580.679 178.885C582.021 177.543 582.774 175.723 582.774 173.825Z" fill="#DFDFDF"/>
</g>
<path d="M420.75 12.2829C414.04 14.7257 412.832 18.9847 412.832 18.9847C412.832 18.9847 390.274 16.5419 386.615 31.1806C385.18 36.9198 388.631 63.3275 393.344 93.2949L434.208 74.8332L393.344 93.2768L391.591 79.1103L434.199 74.8332L429.85 56.0626C429.85 56.0626 427.452 9.8492 420.75 12.2829Z" fill="white"/>
<path d="M393.344 93.2771L434.199 74.8335L391.6 79.1107L393.344 93.2771Z" fill="#1A2578"/>
<path d="M508.4 205.182C517.154 209.932 527.952 209.677 535.262 204.619L488.704 176.359C489.14 178.175 489.612 180.037 490.266 181.853C493.825 192.442 500.273 200.724 508.4 205.182Z" fill="#1A2578"/>
<path d="M427.779 188.964C422.768 182.969 415.684 179.079 407.937 178.066C408.191 179.428 408.427 180.727 408.654 181.944C410.152 190.054 414.612 197.318 421.168 202.322L434.109 212.193C434.646 208.095 434.363 203.93 433.277 199.943C432.19 195.955 430.321 192.223 427.779 188.964Z" fill="#1A2578"/>
<path d="M507.483 206.835C511.863 209.214 516.766 210.462 521.75 210.468C527.221 210.549 532.573 208.868 537.015 205.673L535.262 204.611C527.997 209.669 517.155 209.923 508.4 205.174C500.228 200.715 493.871 192.46 490.238 181.808C489.621 179.992 489.112 178.176 488.676 176.314L486.415 174.943C486.938 177.465 487.608 179.954 488.422 182.398C492.173 193.486 498.929 202.14 507.483 206.835Z" fill="white"/>
<path d="M429.305 187.774C423.847 181.213 416.064 177.015 407.583 176.06C407.701 176.732 407.819 177.385 407.937 178.03C411.921 178.495 415.77 179.756 419.257 181.736C422.745 183.716 425.799 186.376 428.24 189.559C430.681 192.741 432.458 196.381 433.466 200.263C434.474 204.144 434.692 208.189 434.109 212.157L435.925 213.51C436.653 208.995 436.44 204.379 435.301 199.951C434.162 195.522 432.121 191.377 429.305 187.774Z" fill="white"/>
<path d="M538.459 378.639C558.51 380.791 578.552 374.798 597.922 368.995L604.278 367.088C625.828 360.731 648.612 355.791 669.607 362.039L671.306 362.566C676.692 364.342 681.658 367.2 685.899 370.966L680.305 308.815L682.839 308.588L687.806 363.628C689.602 357.502 692.859 351.905 697.298 347.317C701.737 342.73 707.224 339.29 713.287 337.293C714.705 336.854 716.148 336.505 717.61 336.249L695.171 249.434C693.12 249.735 691.05 249.887 688.977 249.888C680.497 249.959 672.207 247.378 665.267 242.505C664.359 241.878 663.55 241.206 662.742 240.498C655.233 233.815 650.377 224.655 649.057 214.69C636.145 212.782 623.141 211.57 610.099 211.057C598.503 210.603 586.879 210.685 575.292 211.339C566.907 211.817 558.549 212.589 550.219 213.655L537.042 205.645C532.6 208.84 527.248 210.521 521.777 210.44C516.794 210.434 511.89 209.186 507.511 206.807C498.956 202.113 492.2 193.458 488.441 182.379C487.627 179.936 486.957 177.446 486.434 174.924L456.539 156.762L434.19 74.8054L393.326 93.2581C397.975 122.89 403.878 155.99 407.538 176.032C411.927 176.462 416.18 177.797 420.028 179.953C423.875 182.108 427.235 185.038 429.894 188.556C432.554 192.075 434.455 196.106 435.479 200.396C436.503 204.686 436.627 209.142 435.843 213.482L507.919 268.468L509.527 266.534L530.023 283.706L528.388 285.658L511.225 271.292L499.565 357.435C508.41 369.276 523.82 377.05 538.459 378.639ZM445.106 165.561L443.744 163.409L455.84 155.763L457.202 157.915L445.106 165.561Z" fill="#1A2578"/>
<path d="M719.172 342.442L718.064 338.128C716.636 338.376 715.225 338.716 713.841 339.145C707.404 341.253 701.66 345.07 697.224 350.188C692.787 355.307 689.824 361.534 688.65 368.205L688.187 368.123L688.659 373.399H688.496L689.077 373.989C693.353 374.877 697.784 374.661 701.953 373.36C706.122 372.059 709.891 369.717 712.903 366.555C715.915 363.393 718.071 359.515 719.168 355.288C720.265 351.061 720.266 346.624 719.172 342.396V342.442Z" fill="#1A2578"/>
<path d="M666.357 240.971C669.313 243.098 672.574 244.766 676.028 245.92C682.026 247.927 688.409 248.512 694.671 247.628L694.036 245.194C692.309 238.515 688.785 232.437 683.846 227.621C678.906 222.805 672.741 219.435 666.021 217.878L663.078 217.197C662.518 217.025 661.948 216.885 661.371 216.779C657.92 216.174 654.463 215.59 651 215.027C652.287 223.671 656.362 231.659 662.606 237.775C663.778 238.928 665.032 239.997 666.357 240.971Z" fill="#1A2578"/>
<path d="M670.679 364.392L669.689 364.083C648.984 357.663 626.282 362.594 604.796 368.923L598.439 370.83C578.869 376.715 558.637 382.735 538.205 380.538C520.524 378.631 507.238 370.322 499.156 360.096L495.051 390.382C494.689 393.102 494.905 395.869 495.687 398.5C496.473 401.126 497.807 403.556 499.6 405.628C501.394 407.701 503.608 409.369 506.094 410.523C507.054 410.96 508.047 411.321 509.063 411.604C510.685 412.05 512.358 412.285 514.04 412.303L532.511 412.458L669.489 413.629C671.059 413.633 672.624 413.444 674.148 413.066C675.235 412.818 676.299 412.474 677.326 412.04C681.048 410.424 684.168 407.679 686.246 404.194C688.324 400.708 689.253 396.658 688.904 392.616L687.361 375.116C686.598 374.335 685.808 373.591 685.009 372.864C680.88 369.065 675.997 366.178 670.679 364.392Z" fill="#1A2578"/>
<path d="M687.779 363.629L688.188 368.17L688.651 368.251C689.824 361.58 692.787 355.353 697.224 350.235C701.661 345.117 707.404 341.3 713.841 339.192C715.226 338.762 716.636 338.423 718.064 338.175L717.583 336.359C716.121 336.616 714.678 336.964 713.26 337.403C707.209 339.389 701.73 342.813 697.292 347.38C692.854 351.948 689.59 357.524 687.779 363.629Z" fill="white"/>
<path d="M686.117 373.663L685.872 370.939C681.631 367.173 676.665 364.315 671.278 362.539L669.58 362.012C648.585 355.764 625.801 360.714 604.251 367.061L597.894 368.968C578.525 374.771 558.483 380.774 538.432 378.612C523.793 377.032 508.383 369.25 499.565 357.408L499.211 360.069C507.247 370.294 520.533 378.603 538.259 380.51C558.692 382.708 578.924 376.687 598.494 370.803L604.851 368.896C626.336 362.539 649.039 357.635 669.744 364.055L670.733 364.364C676.081 366.141 680.992 369.028 685.145 372.837C685.944 373.563 686.734 374.308 687.497 375.089L687.361 373.563C687.951 373.727 688.541 373.881 689.177 374.008L688.596 373.418L686.117 373.663Z" fill="white"/>
<path d="M662.715 240.535C663.523 241.243 664.367 241.915 665.239 242.542C672.178 247.41 680.465 249.988 688.941 249.916C691.013 249.915 693.083 249.763 695.134 249.462L694.662 247.645C688.399 248.529 682.017 247.945 676.018 245.938C672.564 244.784 669.304 243.116 666.347 240.989C665.007 240.016 663.738 238.948 662.551 237.792C656.324 231.671 652.265 223.684 650.991 215.044L649.021 214.745C650.347 224.705 655.206 233.857 662.715 240.535Z" fill="white"/>
<path d="M682.82 308.589L680.269 308.816L685.872 370.957L686.117 373.663L688.496 373.445L688.659 373.436L688.187 368.16L687.779 363.629L682.82 308.589Z" fill="black"/>
<path d="M530.05 283.707L509.572 266.562L507.965 268.496L507.938 268.514L511.252 271.293L528.415 285.659L530.05 283.707Z" fill="black"/>
<path d="M455.854 155.816L443.755 163.461L445.113 165.611L457.212 157.965L455.854 155.816Z" fill="black"/>
<path d="M232.501 221.667H242.317V299.086H262.052V221.667H271.868L252.184 186.891L232.501 221.667Z" fill="url(#paint4_linear_562_7732)"/>
<path d="M333.87 164.155H343.414V237.947H362.612V164.155H372.156L353.013 131L333.87 164.155Z" fill="url(#paint5_linear_562_7732)"/>
<path d="M453.398 285.441L434.255 318.587H443.799V392.38H462.997V318.587H472.541L453.398 285.441Z" fill="url(#paint6_linear_562_7732)"/>
<path d="M232.009 360.238L218.723 383.427H225.35V435.035H238.668V383.427H245.295L232.009 360.238Z" fill="url(#paint7_linear_562_7732)"/>
<path opacity="0.3" d="M630.597 99.902C634.673 99.902 637.978 96.492 637.978 92.2857C637.978 88.0793 634.673 84.6694 630.597 84.6694C626.52 84.6694 623.215 88.0793 623.215 92.2857C623.215 96.492 626.52 99.902 630.597 99.902Z" stroke="#74BBFB" stroke-width="5"/>
<g filter="url(#filter1_d_562_7732)">
<circle cx="176.478" cy="248.478" r="32.4775" fill="white"/>
<path d="M171.76 240.851H163.038L171.012 255.72H179.734L171.76 240.851Z" fill="#0056A7"/>
<path d="M170.846 255.302L171.095 255.72H179.817L174.086 245.278L170.846 255.302Z" fill="#2E3191"/>
<path d="M186.794 228.32L171.095 255.719H179.817L195.516 228.32H186.794Z" fill="#0056A7"/>
<path d="M171.095 259.812H179.568V268.416H171.095V259.812Z" fill="#0056A7"/>
</g>
<g filter="url(#filter2_d_562_7732)">
<circle cx="186.245" cy="111.242" r="32.4775" fill="white"/>
<path d="M199.833 121.868C199.833 122.437 199.397 122.903 198.864 122.903H192.103C191.57 122.903 191.134 122.437 191.134 121.868V114.653C191.134 114.085 191.57 113.619 192.103 113.619H198.864C199.397 113.619 199.833 114.085 199.833 114.653V121.868Z" fill="#07BFDD"/>
<path d="M208.643 112.772C208.643 113.341 208.206 113.807 207.674 113.807H200.913C200.38 113.807 199.943 113.341 199.943 112.772V105.557C199.943 104.988 200.38 104.522 200.913 104.522H207.674C208.206 104.522 208.643 104.988 208.643 105.557V112.772Z" fill="#007FFF"/>
<path d="M182.463 121.868C182.463 122.437 182.026 122.903 181.493 122.903H174.733C174.2 122.903 173.763 122.437 173.763 121.868V114.653C173.763 114.085 174.2 113.619 174.733 113.619H181.493C182.026 113.619 182.463 114.085 182.463 114.653V121.868Z" fill="#1DA5F8"/>
<path d="M173.666 112.773C173.666 113.342 173.229 113.808 172.696 113.808H165.936C165.403 113.808 164.966 113.343 164.966 112.773V105.558C164.966 104.989 165.403 104.523 165.936 104.523H172.696C173.229 104.523 173.666 104.989 173.666 105.558V112.773Z" fill="#8CC936"/>
</g>
<defs>
<filter id="filter0_d_562_7732" x="546.389" y="121.203" width="93.1299" height="104.173" filterUnits="userSpaceOnUse" color-interpolation-filters="sRGB">
<feFlood flood-opacity="0" result="BackgroundImageFix"/>
<feColorMatrix in="SourceAlpha" type="matrix" values="0 0 0 0 0 0 0 0 0 0 0 0 0 0 0 0 0 0 127 0" result="hardAlpha"/>
<feOffset dy="4"/>
<feGaussianBlur stdDeviation="5"/>
<feComposite in2="hardAlpha" operator="out"/>
<feColorMatrix type="matrix" values="0 0 0 0 0 0 0 0 0 0 0 0 0 0 0 0 0 0 0.11 0"/>
<feBlend mode="normal" in2="BackgroundImageFix" result="effect1_dropShadow_562_7732"/>
<feBlend mode="normal" in="SourceGraphic" in2="effect1_dropShadow_562_7732" result="shape"/>
</filter>
<filter id="filter1_d_562_7732" x="123" y="193" width="118.955" height="118.955" filterUnits="userSpaceOnUse" color-interpolation-filters="sRGB">
<feFlood flood-opacity="0" result="BackgroundImageFix"/>
<feColorMatrix in="SourceAlpha" type="matrix" values="0 0 0 0 0 0 0 0 0 0 0 0 0 0 0 0 0 0 127 0" result="hardAlpha"/>
<feOffset dx="6" dy="4"/>
<feGaussianBlur stdDeviation="13.5"/>
<feComposite in2="hardAlpha" operator="out"/>
<feColorMatrix type="matrix" values="0 0 0 0 0.767237 0 0 0 0 0.799552 0 0 0 0 0.920732 0 0 0 1 0"/>
<feBlend mode="normal" in2="BackgroundImageFix" result="effect1_dropShadow_562_7732"/>
<feBlend mode="normal" in="SourceGraphic" in2="effect1_dropShadow_562_7732" result="shape"/>
</filter>
<filter id="filter2_d_562_7732" x="132.767" y="55.7645" width="118.955" height="118.955" filterUnits="userSpaceOnUse" color-interpolation-filters="sRGB">
<feFlood flood-opacity="0" result="BackgroundImageFix"/>
<feColorMatrix in="SourceAlpha" type="matrix" values="0 0 0 0 0 0 0 0 0 0 0 0 0 0 0 0 0 0 127 0" result="hardAlpha"/>
<feOffset dx="6" dy="4"/>
<feGaussianBlur stdDeviation="13.5"/>
<feComposite in2="hardAlpha" operator="out"/>
<feColorMatrix type="matrix" values="0 0 0 0 0.767237 0 0 0 0 0.799552 0 0 0 0 0.920732 0 0 0 1 0"/>
<feBlend mode="normal" in2="BackgroundImageFix" result="effect1_dropShadow_562_7732"/>
<feBlend mode="normal" in="SourceGraphic" in2="effect1_dropShadow_562_7732" result="shape"/>
</filter>
<linearGradient id="paint0_linear_562_7732" x1="333.373" y1="359.387" x2="359.771" y2="359.387" gradientUnits="userSpaceOnUse">
<stop stop-color="#E3E7F6"/>
<stop offset="1" stop-color="#E3E7F6"/>
</linearGradient>
<linearGradient id="paint1_linear_562_7732" x1="29184.4" y1="13717.1" x2="30039.8" y2="13717.1" gradientUnits="userSpaceOnUse">
<stop stop-color="#E3E7F6"/>
<stop offset="1" stop-color="#E3E7F6"/>
</linearGradient>
<linearGradient id="paint2_linear_562_7732" x1="52099.4" y1="13717.1" x2="55324.1" y2="13717.1" gradientUnits="userSpaceOnUse">
<stop stop-color="#E3E7F6"/>
<stop offset="1" stop-color="#E3E7F6"/>
</linearGradient>
<linearGradient id="paint3_linear_562_7732" x1="93623.2" y1="14593.6" x2="104088" y2="14593.6" gradientUnits="userSpaceOnUse">
<stop stop-color="#E3E7F6"/>
<stop offset="1" stop-color="#E3E7F6"/>
</linearGradient>
<linearGradient id="paint4_linear_562_7732" x1="41677.4" y1="43346.1" x2="18180.5" y2="59390.9" gradientUnits="userSpaceOnUse">
<stop stop-color="#E3E7F6"/>
<stop offset="1" stop-color="#E3E7F6"/>
</linearGradient>
<linearGradient id="paint5_linear_562_7732" x1="40640.7" y1="41271.6" x2="18082.7" y2="56987.3" gradientUnits="userSpaceOnUse">
<stop stop-color="#E3E7F6"/>
<stop offset="1" stop-color="#E3E7F6"/>
</linearGradient>
<linearGradient id="paint6_linear_562_7732" x1="48113.8" y1="47549" x2="25557" y2="63265.3" gradientUnits="userSpaceOnUse">
<stop stop-color="#E3E7F6"/>
<stop offset="1" stop-color="#E3E7F6"/>
</linearGradient>
<linearGradient id="paint7_linear_562_7732" x1="25915.7" y1="43744.6" x2="16473.3" y2="50272.6" gradientUnits="userSpaceOnUse">
<stop stop-color="#E3E7F6"/>
<stop offset="1" stop-color="#E3E7F6"/>
</linearGradient>
</defs>
</svg>
